<?xml version="1.0" encoding="UTF-8" standalone="no"?>
<!DOCTYPE svg PUBLIC "-//W3C//DTD SVG 1.1//EN"
 "http://www.w3.org/Graphics/SVG/1.1/DTD/svg11.dtd">
<!-- Generated by graphviz version 9.0.0 (20230911.1827)
 -->
<!-- Title: UML_Class_diagram Pages: 1 -->
<svg width="368pt" height="947pt"
 viewBox="0.00 0.00 367.50 946.50" xmlns="http://www.w3.org/2000/svg" xmlns:xlink="http://www.w3.org/1999/xlink">
<g id="graph0" class="graph" transform="scale(1 1) rotate(0) translate(4 942.5)">
<title>UML_Class_diagram</title>
<polygon fill="white" stroke="none" points="-4,4 -4,-942.5 363.5,-942.5 363.5,4 -4,4"/>
<text text-anchor="middle" x="179.75" y="-921.2" font-family="Helvetica,Arial,sans-serif" font-size="14.00">UML Class diagram demo</text>
<!-- Client -->
<g id="node1" class="node">
<title>Client</title>
<polygon fill="#f2f2f2" stroke="black" points="153.75,-877.5 153.75,-913.5 207.75,-913.5 207.75,-877.5 153.75,-877.5"/>
<text text-anchor="middle" x="180.75" y="-890.45" font-family="Helvetica,Arial,sans-serif" font-size="14.00">Client</text>
</g>
<!-- Interface1 -->
<g id="node2" class="node">
<title>Interface1</title>
<polygon fill="#f2f2f2" stroke="black" points="75.88,-717.5 75.88,-824 191.62,-824 191.62,-717.5 75.88,-717.5"/>
<text text-anchor="start" x="83.88" y="-807.7" font-family="Helvetica,Arial,sans-serif" font-weight="bold" font-size="14.00">«interface» I/O</text>
<polyline fill="none" stroke="black" points="75.88,-799.5 191.62,-799.5"/>
<text text-anchor="start" x="101.5" y="-782.2" font-family="Helvetica,Arial,sans-serif" font-size="14.00">+ property</text>
<text text-anchor="start" x="101.5" y="-765.7" font-family="Helvetica,Arial,sans-serif" font-size="14.00">...</text>
<polyline fill="none" stroke="black" points="75.88,-758.5 191.62,-758.5"/>
<text text-anchor="start" x="103.75" y="-741.2" font-family="Helvetica,Arial,sans-serif" font-size="14.00">+ method</text>
<text text-anchor="start" x="103.75" y="-724.7" font-family="Helvetica,Arial,sans-serif" font-size="14.00">...</text>
</g>
<!-- Client&#45;&gt;Interface1 -->
<g id="edge1" class="edge">
<title>Client&#45;&gt;Interface1</title>
<path fill="none" stroke="black" stroke-dasharray="5,2" d="M153.56,-879.65C146.2,-874.19 139.13,-867.28 135,-859 131.33,-851.65 129.16,-843.49 128.02,-835.21"/>
<polygon fill="black" stroke="black" points="127.18,-825.51 132.53,-835.09 127.51,-829.28 128.05,-835.48 128.05,-835.48 128.05,-835.48 127.51,-829.28 123.56,-835.87 127.18,-825.51"/>
<text text-anchor="middle" x="175.12" y="-845.7" font-family="Helvetica,Arial,sans-serif" font-size="14.00">dependency</text>
</g>
<!-- Interface2 -->
<g id="node3" class="node">
<title>Interface2</title>
<ellipse fill="#f2f2f2" stroke="black" cx="227.75" cy="-770.75" rx="18" ry="18"/>
<text text-anchor="middle" x="237.12" y="-808.45" font-family="Helvetica,Arial,sans-serif" font-size="14.00">Simple</text>
<text text-anchor="middle" x="237.12" y="-791.95" font-family="Helvetica,Arial,sans-serif" font-size="14.00">interface</text>
</g>
<!-- Client&#45;&gt;Interface2 -->
<g id="edge2" class="edge">
<title>Client&#45;&gt;Interface2</title>
<path fill="none" stroke="black" stroke-dasharray="5,2" d="M200.54,-877.3C205.59,-871.93 210.5,-865.65 213.75,-859 222.7,-840.65 226.13,-817.8 227.36,-800.09"/>
<polygon fill="black" stroke="black" points="227.83,-790.25 231.85,-800.45 227.65,-794.02 227.35,-800.24 227.35,-800.24 227.35,-800.24 227.65,-794.02 222.86,-800.02 227.83,-790.25"/>
</g>
<!-- Class1 -->
<g id="node4" class="node">
<title>Class1</title>
<polygon fill="#f2f2f2" stroke="black" points="139.5,-573 139.5,-679.5 220,-679.5 220,-573 139.5,-573"/>
<text text-anchor="start" x="150.12" y="-663.2" font-family="Helvetica,Arial,sans-serif" font-weight="bold" font-size="14.00">I/O class</text>
<polyline fill="none" stroke="black" points="139.5,-655 220,-655"/>
<text text-anchor="start" x="147.5" y="-637.7" font-family="Helvetica,Arial,sans-serif" font-size="14.00">+ property</text>
<text text-anchor="start" x="147.5" y="-621.2" font-family="Helvetica,Arial,sans-serif" font-size="14.00">...</text>
<polyline fill="none" stroke="black" points="139.5,-614 220,-614"/>
<text text-anchor="start" x="149.75" y="-596.7" font-family="Helvetica,Arial,sans-serif" font-size="14.00">+ method</text>
<text text-anchor="start" x="149.75" y="-580.2" font-family="Helvetica,Arial,sans-serif" font-size="14.00">...</text>
</g>
<!-- Interface1&#45;&gt;Class1 -->
<g id="edge3" class="edge">
<title>Interface1&#45;&gt;Class1</title>
<path fill="none" stroke="black" d="M154.22,-706.35C157.09,-697.44 160.02,-688.36 162.82,-679.69"/>
<polygon fill="none" stroke="black" points="150.95,-705.06 151.21,-715.65 157.62,-707.21 150.95,-705.06"/>
<text text-anchor="middle" x="122.66" y="-701.58" font-family="Helvetica,Arial,sans-serif" font-size="14.00">inheritance</text>
</g>
<!-- Interface2&#45;&gt;Class1 -->
<g id="edge4" class="edge">
<title>Interface2&#45;&gt;Class1</title>
<path fill="none" stroke="black" d="M222.15,-753.12C216.12,-735.21 206.2,-705.78 197.48,-679.88"/>
</g>
<!-- System_1 -->
<g id="node5" class="node">
<title>System_1</title>
<polygon fill="#f2f2f2" stroke="none" points="232.5,-520 127,-520 127,-338 232.5,-338 232.5,-520"/>
<polygon fill="none" stroke="black" points="127,-493.5 127,-520 232.5,-520 232.5,-493.5 127,-493.5"/>
<text text-anchor="start" x="150.12" y="-502.7" font-family="Helvetica,Arial,sans-serif" font-size="14.00"> </text>
<text text-anchor="start" x="153.88" y="-502.7" font-family="Helvetica,Arial,sans-serif" font-weight="bold" font-size="14.00">System</text>
<text text-anchor="start" x="205.62" y="-502.7" font-family="Helvetica,Arial,sans-serif" font-size="14.00"> </text>
<polygon fill="none" stroke="black" points="127,-381 127,-493.5 232.5,-493.5 232.5,-381 127,-381"/>
<text text-anchor="start" x="134" y="-473.2" font-family="Helvetica,Arial,sans-serif" font-size="14.00">+ property</text>
<text text-anchor="start" x="134" y="-452.7" font-family="Helvetica,Arial,sans-serif" font-size="14.00">&#45; Subsystem 1</text>
<text text-anchor="start" x="134" y="-432.2" font-family="Helvetica,Arial,sans-serif" font-size="14.00">&#45; Subsystem 2</text>
<text text-anchor="start" x="134" y="-411.7" font-family="Helvetica,Arial,sans-serif" font-size="14.00">&#45; Subsystem 3</text>
<text text-anchor="start" x="134" y="-391.2" font-family="Helvetica,Arial,sans-serif" font-size="14.00">...</text>
<polygon fill="none" stroke="black" points="127,-338 127,-381 232.5,-381 232.5,-338 127,-338"/>
<text text-anchor="start" x="132" y="-362.7" font-family="Helvetica,Arial,sans-serif" font-size="14.00">+ method</text>
<text text-anchor="start" x="132" y="-346.2" font-family="Helvetica,Arial,sans-serif" font-size="14.00">...</text>
</g>
<!-- Class1&#45;&gt;System_1 -->
<g id="edge5" class="edge">
<title>Class1&#45;&gt;System_1</title>
<path fill="none" stroke="black" stroke-dasharray="5,2" d="M179.75,-561.31C179.75,-548.09 179.75,-533.91 179.75,-519.95"/>
<polygon fill="none" stroke="black" points="176.25,-561.16 179.75,-571.16 183.25,-561.16 176.25,-561.16"/>
<text text-anchor="middle" x="227.75" y="-541.2" font-family="Helvetica,Arial,sans-serif" font-size="14.00">implementation</text>
</g>
<!-- Subsystem_1 -->
<g id="node6" class="node">
<title>Subsystem_1</title>
<polygon fill="#f2f2f2" stroke="none" points="107.5,-301 0,-301 0,-160 107.5,-160 107.5,-301"/>
<polygon fill="none" stroke="black" points="0,-274.5 0,-301 107.5,-301 107.5,-274.5 0,-274.5"/>
<text text-anchor="start" x="5" y="-283.7" font-family="Helvetica,Arial,sans-serif" font-size="14.00"> </text>
<text text-anchor="start" x="8.75" y="-283.7" font-family="Helvetica,Arial,sans-serif" font-weight="bold" font-size="14.00">Subsystem 1</text>
<text text-anchor="start" x="98.75" y="-283.7" font-family="Helvetica,Arial,sans-serif" font-size="14.00"> </text>
<polygon fill="none" stroke="black" points="0,-203 0,-274.5 107.5,-274.5 107.5,-203 0,-203"/>
<text text-anchor="start" x="7" y="-254.2" font-family="Helvetica,Arial,sans-serif" font-size="14.00">+ property</text>
<text text-anchor="start" x="7" y="-233.7" font-family="Helvetica,Arial,sans-serif" font-size="14.00">&#45; resource</text>
<text text-anchor="start" x="7" y="-213.2" font-family="Helvetica,Arial,sans-serif" font-size="14.00">...</text>
<polygon fill="none" stroke="black" points="0,-160 0,-203 107.5,-203 107.5,-160 0,-160"/>
<text text-anchor="start" x="5" y="-184.7" font-family="Helvetica,Arial,sans-serif" font-size="14.00">+ method</text>
<text text-anchor="start" x="5" y="-168.2" font-family="Helvetica,Arial,sans-serif" font-size="14.00">...</text>
</g>
<!-- System_1&#45;&gt;Subsystem_1 -->
<g id="edge6" class="edge">
<title>System_1&#45;&gt;Subsystem_1</title>
<path fill="none" stroke="black" stroke-dasharray="5,2" d="M120.04,-334.89C112.71,-323.45 105.31,-311.91 98.26,-300.91"/>
<polygon fill="black" stroke="black" points="120.08,-334.94 126.69,-337.84 126.56,-345.05 119.95,-342.15 120.08,-334.94"/>
<text text-anchor="middle" x="74.19" y="-326.82" font-family="Helvetica,Arial,sans-serif" font-size="14.00">composition</text>
</g>
<!-- Subsystem_2 -->
<g id="node7" class="node">
<title>Subsystem_2</title>
<polygon fill="#f2f2f2" stroke="none" points="233.5,-301 126,-301 126,-160 233.5,-160 233.5,-301"/>
<polygon fill="none" stroke="black" points="126,-274.5 126,-301 233.5,-301 233.5,-274.5 126,-274.5"/>
<text text-anchor="start" x="131" y="-283.7" font-family="Helvetica,Arial,sans-serif" font-size="14.00"> </text>
<text text-anchor="start" x="134.75" y="-283.7" font-family="Helvetica,Arial,sans-serif" font-weight="bold" font-size="14.00">Subsystem 2</text>
<text text-anchor="start" x="224.75" y="-283.7" font-family="Helvetica,Arial,sans-serif" font-size="14.00"> </text>
<polygon fill="none" stroke="black" points="126,-203 126,-274.5 233.5,-274.5 233.5,-203 126,-203"/>
<text text-anchor="start" x="133" y="-254.2" font-family="Helvetica,Arial,sans-serif" font-size="14.00">+ property</text>
<text text-anchor="start" x="133" y="-233.7" font-family="Helvetica,Arial,sans-serif" font-size="14.00">&#45; resource</text>
<text text-anchor="start" x="133" y="-213.2" font-family="Helvetica,Arial,sans-serif" font-size="14.00">...</text>
<polygon fill="none" stroke="black" points="126,-160 126,-203 233.5,-203 233.5,-160 126,-160"/>
<text text-anchor="start" x="131" y="-184.7" font-family="Helvetica,Arial,sans-serif" font-size="14.00">+ method</text>
<text text-anchor="start" x="131" y="-168.2" font-family="Helvetica,Arial,sans-serif" font-size="14.00">...</text>
</g>
<!-- System_1&#45;&gt;Subsystem_2 -->
<g id="edge7" class="edge">
<title>System_1&#45;&gt;Subsystem_2</title>
<path fill="none" stroke="black" stroke-dasharray="5,2" d="M179.75,-325.13C179.75,-316.89 179.75,-308.69 179.75,-300.77"/>
<polygon fill="black" stroke="black" points="179.75,-325.19 183.75,-331.19 179.75,-337.19 175.75,-331.19 179.75,-325.19"/>
</g>
<!-- Subsystem_3 -->
<g id="node8" class="node">
<title>Subsystem_3</title>
<polygon fill="#f2f2f2" stroke="none" points="359.5,-301 252,-301 252,-160 359.5,-160 359.5,-301"/>
<polygon fill="none" stroke="black" points="252,-274.5 252,-301 359.5,-301 359.5,-274.5 252,-274.5"/>
<text text-anchor="start" x="257" y="-283.7" font-family="Helvetica,Arial,sans-serif" font-size="14.00"> </text>
<text text-anchor="start" x="260.75" y="-283.7" font-family="Helvetica,Arial,sans-serif" font-weight="bold" font-size="14.00">Subsystem 3</text>
<text text-anchor="start" x="350.75" y="-283.7" font-family="Helvetica,Arial,sans-serif" font-size="14.00"> </text>
<polygon fill="none" stroke="black" points="252,-203 252,-274.5 359.5,-274.5 359.5,-203 252,-203"/>
<text text-anchor="start" x="259" y="-254.2" font-family="Helvetica,Arial,sans-serif" font-size="14.00">+ property</text>
<text text-anchor="start" x="259" y="-233.7" font-family="Helvetica,Arial,sans-serif" font-size="14.00">&#45; resource</text>
<text text-anchor="start" x="259" y="-213.2" font-family="Helvetica,Arial,sans-serif" font-size="14.00">...</text>
<polygon fill="none" stroke="black" points="252,-160 252,-203 359.5,-203 359.5,-160 252,-160"/>
<text text-anchor="start" x="257" y="-184.7" font-family="Helvetica,Arial,sans-serif" font-size="14.00">+ method</text>
<text text-anchor="start" x="257" y="-168.2" font-family="Helvetica,Arial,sans-serif" font-size="14.00">...</text>
</g>
<!-- System_1&#45;&gt;Subsystem_3 -->
<g id="edge8" class="edge">
<title>System_1&#45;&gt;Subsystem_3</title>
<path fill="none" stroke="black" stroke-dasharray="5,2" d="M239.46,-334.89C246.79,-323.45 254.19,-311.91 261.24,-300.91"/>
<polygon fill="black" stroke="black" points="239.42,-334.94 239.55,-342.15 232.94,-345.05 232.81,-337.84 239.42,-334.94"/>
</g>
<!-- Shared resource -->
<g id="node9" class="node">
<title>Shared resource</title>
<polygon fill="#f2f2f2" stroke="black" points="113.25,-0.5 113.25,-107 246.25,-107 246.25,-0.5 113.25,-0.5"/>
<text text-anchor="start" x="121.25" y="-90.7" font-family="Helvetica,Arial,sans-serif" font-weight="bold" font-size="14.00">Shared resource</text>
<polyline fill="none" stroke="black" points="113.25,-82.5 246.25,-82.5"/>
<text text-anchor="start" x="147.5" y="-65.2" font-family="Helvetica,Arial,sans-serif" font-size="14.00">+ property</text>
<text text-anchor="start" x="147.5" y="-48.7" font-family="Helvetica,Arial,sans-serif" font-size="14.00">...</text>
<polyline fill="none" stroke="black" points="113.25,-41.5 246.25,-41.5"/>
<text text-anchor="start" x="149.75" y="-24.2" font-family="Helvetica,Arial,sans-serif" font-size="14.00">+ method</text>
<text text-anchor="start" x="149.75" y="-7.7" font-family="Helvetica,Arial,sans-serif" font-size="14.00">...</text>
</g>
<!-- Subsystem_1&#45;&gt;Shared resource -->
<g id="edge9" class="edge">
<title>Subsystem_1:r1&#45;&gt;Shared resource</title>
<path fill="none" stroke="black" stroke-dasharray="5,2" d="M112.31,-228.85C117.15,-210.78 112.16,-172.51 116.75,-160 123.35,-142.01 133.1,-123.66 142.96,-107.42"/>
<polygon fill="none" stroke="black" points="112.31,-228.85 111.32,-235.99 104.35,-237.83 105.34,-230.68 112.31,-228.85"/>
<text text-anchor="middle" x="170.25" y="-128.7" font-family="Helvetica,Arial,sans-serif" font-size="14.00">aggregation</text>
</g>
<!-- Subsystem_2&#45;&gt;Shared resource -->
<g id="edge10" class="edge">
<title>Subsystem_2:r1&#45;&gt;Shared resource</title>
<path fill="none" stroke="black" stroke-dasharray="5,2" d="M237.55,-228.34C240.49,-210.14 231.64,-172.69 228.75,-160 224.67,-142.12 217.3,-123.65 209.49,-107.27"/>
<polygon fill="none" stroke="black" points="237.61,-228.27 237.13,-235.46 230.3,-237.78 230.78,-230.59 237.61,-228.27"/>
</g>
<!-- Subsystem_3&#45;&gt;Shared resource -->
<g id="edge11" class="edge">
<title>Subsystem_3:r1&#45;&gt;Shared resource</title>
<path fill="none" stroke="black" stroke-dasharray="5,2" d="M246.91,-229.23C241.33,-211.45 245.36,-173.14 242.75,-160 239.68,-144.56 241.52,-139.71 234.75,-125.5 231.81,-119.32 228.25,-113.17 224.38,-107.23"/>
<polygon fill="none" stroke="black" points="246.85,-229.16 253.88,-230.74 255.13,-237.85 248.09,-236.26 246.85,-229.16"/>
</g>
</g>
</svg>
